<?xml version="1.0" standalone="no"?>
<!DOCTYPE svg PUBLIC "-//W3C//DTD SVG 20010904//EN"
 "http://www.w3.org/TR/2001/REC-SVG-20010904/DTD/svg10.dtd">
<svg version="1.0" xmlns="http://www.w3.org/2000/svg"
 width="1222.000000pt" height="1280.000000pt" viewBox="0 0 1222.000000 1280.000000"
 preserveAspectRatio="xMidYMid meet">
<g transform="translate(0.000000,1280.000000) scale(0.100000,-0.100000)"
fill="#000000" stroke="none">
<path d="M7320 12784 c-112 -24 -169 -54 -194 -102 -9 -17 -20 -109 -30 -242
-82 -1069 -246 -1796 -511 -2259 -147 -259 -295 -420 -620 -679 -326 -259
-512 -457 -609 -650 -15 -29 -78 -177 -140 -330 -292 -709 -530 -1203 -786
-1627 -294 -487 -600 -826 -855 -950 -111 -54 -170 -65 -342 -65 l-153 0 0
-2614 c0 -2482 1 -2615 17 -2620 10 -3 358 -68 773 -145 761 -141 1130 -210
1624 -302 285 -53 419 -67 1031 -109 441 -30 761 -48 1110 -60 171 -6 393 -15
495 -20 238 -13 547 -13 781 0 101 6 270 15 374 20 471 26 799 82 983 170 165
79 389 244 566 418 176 173 268 290 329 420 l32 67 5 335 5 335 27 58 c40 85
67 117 323 377 283 287 341 367 371 511 24 117 8 184 -132 536 -102 255 -138
383 -131 467 9 108 71 200 331 498 117 134 184 233 210 310 l19 57 -23 73
c-27 90 -88 207 -210 403 -108 174 -183 326 -201 408 -24 112 10 188 189 425
57 75 123 164 145 197 48 70 97 184 97 226 0 44 -49 225 -87 319 -118 295
-381 652 -607 825 -158 121 -272 151 -741 200 -360 38 -1429 54 -2293 36 -422
-10 -566 -10 -577 -1 -20 17 -45 96 -56 181 -25 196 51 504 222 904 35 83 168
360 295 616 127 257 246 504 263 550 145 379 199 711 188 1144 -8 285 -39 481
-114 705 -38 114 -121 289 -174 367 -222 328 -575 547 -997 617 -108 19 -135
19 -222 0z"/>
<path d="M462 6130 c-96 -11 -173 -40 -247 -95 -102 -77 -158 -163 -195 -299
-20 -75 -20 -95 -20 -2536 0 -2456 0 -2460 21 -2538 47 -175 150 -296 310
-364 l54 -23 865 -3 c581 -2 881 1 914 8 179 38 342 207 376 389 14 74 14
4988 0 5062 -15 82 -74 193 -134 253 -61 61 -117 96 -206 128 l-65 23 -800 1
c-440 1 -833 -2 -873 -6z"/>
</g>
</svg>
